<svg id="ab63fbec-757b-496d-a15e-55ae75f768cd" data-name="Ebene 1" xmlns="http://www.w3.org/2000/svg" viewBox="0 0 537.41 116.27"><title>capristo-logo-m-Automotive</title><path d="M326,32.5v7.71c0,4.08,4,7.39,9,7.39s9-3.31,9-7.39V32.5c0-4.08-4-7.39-9-7.39S326,28.42,326,32.5ZM335,51c4.95,0,9,3.32,9,7.4V97.91c0,4.09-4,7.4-9,7.4s-9-3.31-9-7.4V58.38C326,54.3,330,51,335,51Zm-42.54-7.65c-16.26,0-27.19,8.86-27.19,22.06V97.91c0,4.09,4,7.4,9,7.4s8.95-3.31,8.95-7.4V65.39c0-2,0-7.28,9.28-7.28h15.43c4.95,0,9-3.31,9-7.39s-4-7.39-9-7.39ZM436,40.53V84.79c0,19.4,16.22,21.64,28.43,21.64,4.94,0,9-3.31,9-7.39s-4-7.4-9-7.4c-10.52,0-10.52-1.18-10.52-6.85V40.53c0-4.08-4-7.39-9-7.39S436,36.45,436,40.53Zm29.91.84c-4.94,0-8.95,3.31-8.95,7.4s4,7.39,8.95,7.39h11.89c5,0,9-3.31,9-7.39s-4-7.4-9-7.4Zm-353.08,2c-5,0-9,3.31-9,7.39s4,7.39,9,7.39h39c4.53,0,6.9,2.44,6.9,4.84V90.52H132.62c-2.41,0-5.77-.68-7.46-2.18-.64-.56-1.47-1.58-1.28-4,.36-4.31,7.65-4.65,9.88-4.65h13.18c4.95,0,8.95-3.31,8.95-7.39s-4-7.39-8.95-7.39H133.76c-13.06,0-26.7,5.7-27.74,18.44a17.51,17.51,0,0,0,6.06,15c4.87,4.3,12.54,6.87,20.54,6.87h35.07c4.94,0,8.95-3.31,8.95-7.4V63c0-11-10.89-19.62-24.8-19.62Zm83.92,0c-4.95,0-9,3.31-9,7.39v54.39c0,19,19.45,21.64,25.84,22.51,4.88.67,9.49-2.06,10.29-6.08a6.38,6.38,0,0,0,.12-1.22c0-3.55-3.11-6.68-7.49-7.28-8.92-1.22-10.85-2.63-10.85-7.93v-47h26.79c9.1,0,9.1,5.66,9.1,7.52v18c0,9.09-3.81,9.09-7.17,9.09H220.48c-4.94,0-8.95,3.31-8.95,7.39s4,7.4,8.95,7.4h13.91c7.54,0,25.08-2.33,25.08-23.88v-18c0-15.32-14-22.3-27-22.3Zm337.85,0c14.93,0,27.08,10,27.08,22.36V84.43c0,12.33-12.15,22.36-27.08,22.36H517.38c-14.93,0-27.08-10-27.08-22.36V65.69c0-12.33,12.15-22.36,27.08-22.36ZM517.38,92h17.19c5.06,0,9.17-3.4,9.17-7.58V65.69c0-4.18-4.11-7.58-9.17-7.58H517.38c-5,0-9.17,3.4-9.17,7.58V84.43C508.21,88.61,512.33,92,517.38,92Zm-466.06-67c-14.93,0-27.08,10-27.08,22.36V83c0,12.33,12.15,22.36,27.08,22.36H67.49c14.93,0,27.08-10,27.08-22.36V71.29c0-4.08-4-7.39-8.95-7.39s-9,3.31-9,7.39V83c0,4.17-4.11,7.57-9.17,7.57H51.32c-5.06,0-9.17-3.4-9.17-7.57V47.41c0-4.18,4.11-7.57,9.17-7.57H67.49c5.06,0,9.17,3.39,9.17,7.57v1.71c0,4.09,4,7.4,9,7.4s8.95-3.31,8.95-7.4V47.41c0-12.33-12.15-22.36-27.08-22.36ZM393.37,43.33h-7.61C359.83,43.33,356,55.39,356,62.58c0,4,1.91,17,26.4,18.39l.31,0,18.78.53c10.27.6,10.27,4.17,10.27,5.52,0,4.68-9.19,5.18-13.14,5.18H389c-13.22,0-15.54-4.39-15.63-4.58l.14.4c-1.4-3.85-6.33-6.21-11-5.13s-7.53,4.92-6.32,8.81C358,97.4,366.88,107,389,107h9.53c18.86,0,31.05-7.84,31.05-20,0-11.56-10.35-19.33-27-20.27l-.31,0-18.81-.53c-6.38-.38-9.63-1.6-9.63-3.64,0-1.78,0-4.47,11.9-4.47h12.8c11,0,14.13,4,14.25,4.13l-.18-.29c2.28,3.57,7.68,5.06,12,3.23s6.2-6.11,4-9.73c-.74-1.24-7.83-12.12-30.15-12.12Z" transform="translate(-24.24 -25.05)" style="fill:#fff"/><path d="M373.17,115.43a2,2,0,0,0-.3-.61,1.13,1.13,0,0,0-.57-.34,5.51,5.51,0,0,0-1.11-.14q-.72,0-1.92,0-1,0-1.68,0a4.4,4.4,0,0,0-1,.14,1.11,1.11,0,0,0-.52.33,2,2,0,0,0-.28.56l-8.15,23.44a6.5,6.5,0,0,0-.3,1.14.78.78,0,0,0,.14.66,1.08,1.08,0,0,0,.73.3,14,14,0,0,0,1.47.06c.59,0,1.06,0,1.42,0a3.55,3.55,0,0,0,.84-.15.91.91,0,0,0,.43-.31,1.51,1.51,0,0,0,.21-.48l1.68-5.17h9.92l1.77,5.31a1.33,1.33,0,0,0,.21.43.83.83,0,0,0,.43.26,4,4,0,0,0,.88.12c.39,0,.93,0,1.63,0s1.19,0,1.57-.05a1.3,1.3,0,0,0,.79-.27.69.69,0,0,0,.17-.64,7.34,7.34,0,0,0-.31-1.16Zm-7.72,15.27,3.74-11.23h0l3.73,11.23Zm36.42-9.11a.55.55,0,0,1,.12.35v18.21a.69.69,0,0,1-.1.36.72.72,0,0,1-.36.25,3,3,0,0,1-.67.16,10,10,0,0,1-1.06.05,10.52,10.52,0,0,1-1.09-.05,2.65,2.65,0,0,1-.66-.16.74.74,0,0,1-.35-.25.61.61,0,0,1-.1-.36v-2.1a11.51,11.51,0,0,1-3.07,2.45,7,7,0,0,1-3.24.82,7.22,7.22,0,0,1-3.15-.62,5.31,5.31,0,0,1-2.06-1.67,6.77,6.77,0,0,1-1.13-2.46,15.43,15.43,0,0,1-.33-3.48V121.94a.61.61,0,0,1,.11-.35.83.83,0,0,1,.41-.26,3.36,3.36,0,0,1,.79-.15c.34,0,.75-.05,1.24-.05s.92,0,1.24.05a3.36,3.36,0,0,1,.79.15.92.92,0,0,1,.42.26.55.55,0,0,1,.12.35v10.29a10.15,10.15,0,0,0,.18,2.19,3.8,3.8,0,0,0,.57,1.29,2.59,2.59,0,0,0,1,.84,2.89,2.89,0,0,0,1.35.3,3.33,3.33,0,0,0,2-.72,12,12,0,0,0,2.12-2.08V121.94a.54.54,0,0,1,.11-.35.83.83,0,0,1,.41-.26,3.26,3.26,0,0,1,.78-.15c.33,0,.74-.05,1.25-.05s.92,0,1.24.05a3.16,3.16,0,0,1,.78.15A1,1,0,0,1,401.87,121.59Zm11.28,3.82V134a4.26,4.26,0,0,0,.47,2.23,1.83,1.83,0,0,0,1.68.75,3.93,3.93,0,0,0,.73-.07,5.13,5.13,0,0,0,.58-.17l.43-.16a.81.81,0,0,1,.32-.07.39.39,0,0,1,.23.07.46.46,0,0,1,.18.29,3.77,3.77,0,0,1,.11.58,7.81,7.81,0,0,1,.05.94,6.7,6.7,0,0,1-.11,1.37,1.49,1.49,0,0,1-.3.68,1.52,1.52,0,0,1-.54.34,4.26,4.26,0,0,1-.83.27,9.61,9.61,0,0,1-1,.17,10.55,10.55,0,0,1-1.13.06,8.1,8.1,0,0,1-2.65-.38,4.41,4.41,0,0,1-1.86-1.2,4.88,4.88,0,0,1-1.08-2,10.71,10.71,0,0,1-.35-2.9v-9.33h-2.18a.66.66,0,0,1-.6-.48,4.58,4.58,0,0,1-.2-1.6,9.23,9.23,0,0,1,.05-1,3.2,3.2,0,0,1,.15-.64.79.79,0,0,1,.26-.34.61.61,0,0,1,.36-.1H408v-4.06a.67.67,0,0,1,.11-.37.82.82,0,0,1,.41-.27,3.24,3.24,0,0,1,.8-.17c.33,0,.74,0,1.23,0s.92,0,1.26,0a3.05,3.05,0,0,1,.78.17.86.86,0,0,1,.41.27.61.61,0,0,1,.12.37v4.06h4a.61.61,0,0,1,.36.1.79.79,0,0,1,.26.34,2.23,2.23,0,0,1,.15.64,9.23,9.23,0,0,1,.05,1,4.58,4.58,0,0,1-.2,1.6c-.14.32-.34.48-.59.48Zm24.18-2a7.55,7.55,0,0,0-3-2,12.26,12.26,0,0,0-4.24-.66,11.47,11.47,0,0,0-4.38.76,8.22,8.22,0,0,0-3.11,2.13,8.89,8.89,0,0,0-1.87,3.31,13.59,13.59,0,0,0-.62,4.25,14.76,14.76,0,0,0,.57,4.29,8,8,0,0,0,1.75,3.16,7.64,7.64,0,0,0,3,2,12,12,0,0,0,4.23.68,11.8,11.8,0,0,0,4.39-.76,8.28,8.28,0,0,0,3.12-2.14,9,9,0,0,0,1.86-3.31,13.85,13.85,0,0,0,.61-4.25,14.83,14.83,0,0,0-.57-4.3A8.08,8.08,0,0,0,437.33,123.39Zm-3.23,10.26a5.57,5.57,0,0,1-.82,1.93,3.57,3.57,0,0,1-1.41,1.21,4.52,4.52,0,0,1-2,.42,4.4,4.4,0,0,1-2.12-.46,3.44,3.44,0,0,1-1.36-1.29,6.29,6.29,0,0,1-.72-2,12.75,12.75,0,0,1-.23-2.48,10.56,10.56,0,0,1,.28-2.58,5.82,5.82,0,0,1,.82-1.94,3.63,3.63,0,0,1,1.41-1.23,4.5,4.5,0,0,1,2-.42,4.43,4.43,0,0,1,2.14.47,3.69,3.69,0,0,1,1.35,1.31,5.76,5.76,0,0,1,.73,2,13.58,13.58,0,0,1,.21,2.48A11.72,11.72,0,0,1,434.1,133.65Zm38.25-8.13a13,13,0,0,1,.33,3v11.65a.56.56,0,0,1-.12.36.9.9,0,0,1-.41.25,3.63,3.63,0,0,1-.78.16c-.32,0-.74.05-1.24.05s-.94,0-1.27-.05a3.63,3.63,0,0,1-.78-.16.76.76,0,0,1-.41-.25.56.56,0,0,1-.12-.36v-10.8a7.21,7.21,0,0,0-.17-1.67,3.82,3.82,0,0,0-.53-1.3,2.46,2.46,0,0,0-.9-.83,2.62,2.62,0,0,0-1.29-.3,3,3,0,0,0-1.86.72,11.88,11.88,0,0,0-2,2.08v12.1a.52.52,0,0,1-.13.36.85.85,0,0,1-.41.25,3.88,3.88,0,0,1-.79.16c-.33,0-.73.05-1.22.05s-.92,0-1.25-.05a3.88,3.88,0,0,1-.79-.16.85.85,0,0,1-.41-.25.52.52,0,0,1-.13-.36v-10.8a7.21,7.21,0,0,0-.17-1.67,4.26,4.26,0,0,0-.52-1.3,2.31,2.31,0,0,0-.9-.83,2.63,2.63,0,0,0-1.28-.3,3.06,3.06,0,0,0-1.88.72,11.52,11.52,0,0,0-2,2.08v12.1a.52.52,0,0,1-.13.36.85.85,0,0,1-.41.25,3.88,3.88,0,0,1-.79.16c-.33,0-.74.05-1.25.05s-.91,0-1.24-.05a3.88,3.88,0,0,1-.79-.16.94.94,0,0,1-.42-.25.56.56,0,0,1-.12-.36V121.94a.68.68,0,0,1,.1-.35.84.84,0,0,1,.37-.26,2.74,2.74,0,0,1,.69-.15,9.82,9.82,0,0,1,1.05-.05,10.6,10.6,0,0,1,1.08.05,2.23,2.23,0,0,1,.66.15.79.79,0,0,1,.34.26.6.6,0,0,1,.1.35v2.11a12,12,0,0,1,3-2.45,6.43,6.43,0,0,1,3.14-.82,7.88,7.88,0,0,1,2,.24,5.62,5.62,0,0,1,1.6.67,4.9,4.9,0,0,1,1.21,1,6,6,0,0,1,.86,1.37,14.67,14.67,0,0,1,1.6-1.51,9.45,9.45,0,0,1,1.55-1,7,7,0,0,1,1.54-.6,6.8,6.8,0,0,1,1.56-.19,6.87,6.87,0,0,1,3.06.61,5.4,5.4,0,0,1,2,1.67A6.72,6.72,0,0,1,472.35,125.52Zm21.47-2.13a7.7,7.7,0,0,0-3-2,12.36,12.36,0,0,0-4.25-.66,11.54,11.54,0,0,0-4.38.76,8.3,8.3,0,0,0-3.11,2.13,9,9,0,0,0-1.87,3.31,13.89,13.89,0,0,0-.62,4.25,14.76,14.76,0,0,0,.57,4.29,8.09,8.09,0,0,0,1.75,3.16,7.61,7.61,0,0,0,3,2,11.93,11.93,0,0,0,4.22.68,11.8,11.8,0,0,0,4.39-.76,8.28,8.28,0,0,0,3.12-2.14,9,9,0,0,0,1.86-3.31,13.85,13.85,0,0,0,.61-4.25,14.83,14.83,0,0,0-.57-4.3A8.19,8.19,0,0,0,493.82,123.39Zm-3.24,10.26a5.57,5.57,0,0,1-.82,1.93,3.48,3.48,0,0,1-1.4,1.21,4.6,4.6,0,0,1-2,.42,4.4,4.4,0,0,1-2.12-.46,3.44,3.44,0,0,1-1.36-1.29,6.29,6.29,0,0,1-.72-2,12.75,12.75,0,0,1-.23-2.48,11.08,11.08,0,0,1,.28-2.58,5.63,5.63,0,0,1,.83-1.94,3.49,3.49,0,0,1,1.41-1.23,4.47,4.47,0,0,1,2-.42,4.42,4.42,0,0,1,2.13.47,3.71,3.71,0,0,1,1.36,1.31,5.75,5.75,0,0,1,.72,2,13.54,13.54,0,0,1,.22,2.48A11.11,11.11,0,0,1,490.58,133.65Zm28.72-19.94a2.8,2.8,0,0,1,.61,2.07,2.88,2.88,0,0,1-.63,2.14,5,5,0,0,1-4.68,0,2.76,2.76,0,0,1-.61-2.06,2.92,2.92,0,0,1,.63-2.15,4.94,4.94,0,0,1,4.68,0Zm-.13,7.91a1.53,1.53,0,0,1,.34,1.06v17.47a.57.57,0,0,1-.13.36.8.8,0,0,1-.41.25,3.63,3.63,0,0,1-.78.16c-.34,0-.75.05-1.24.05s-.92,0-1.25-.05a3.61,3.61,0,0,1-.79-.16.9.9,0,0,1-.41-.25.56.56,0,0,1-.12-.36V125.41H506.2V134a4.16,4.16,0,0,0,.47,2.23,1.81,1.81,0,0,0,1.67.75,3.93,3.93,0,0,0,.73-.07,5.35,5.35,0,0,0,.59-.17l.42-.16a.84.84,0,0,1,.32-.07.44.44,0,0,1,.24.07.5.5,0,0,1,.17.29,3.77,3.77,0,0,1,.11.58,6.17,6.17,0,0,1,.05.94,6.48,6.48,0,0,1-.1,1.35,1.54,1.54,0,0,1-.29.68,1.38,1.38,0,0,1-.55.36,4.15,4.15,0,0,1-.84.27,9.82,9.82,0,0,1-1,.17,10.88,10.88,0,0,1-1.14.06,8.1,8.1,0,0,1-2.65-.38,4.41,4.41,0,0,1-1.86-1.2,4.88,4.88,0,0,1-1.08-2,10.71,10.71,0,0,1-.35-2.9v-9.33h-2.18a.64.64,0,0,1-.59-.48,4.3,4.3,0,0,1-.21-1.6,9.23,9.23,0,0,1,.05-1,2.58,2.58,0,0,1,.16-.64.71.71,0,0,1,.25-.34.61.61,0,0,1,.36-.1h2.16v-4.06a.67.67,0,0,1,.11-.37.86.86,0,0,1,.41-.27,3.34,3.34,0,0,1,.8-.17c.33,0,.74,0,1.23,0s.93,0,1.26,0a3.25,3.25,0,0,1,.79.17.83.83,0,0,1,.4.27.56.56,0,0,1,.13.37v4.06H518A1.57,1.57,0,0,1,519.17,121.62Zm22.16-.05a.68.68,0,0,1,.1.35,2.36,2.36,0,0,1,0,.25c0,.09,0,.2,0,.32s0,.24-.08.39-.08.32-.14.51l-5.47,16.48a1.72,1.72,0,0,1-.27.56,1.2,1.2,0,0,1-.57.33,4.53,4.53,0,0,1-1.09.17c-.45,0-1,0-1.78,0s-1.31,0-1.77-.05a4.8,4.8,0,0,1-1.07-.18,1.11,1.11,0,0,1-.56-.33,1.72,1.72,0,0,1-.28-.54l-5.47-16.48c-.08-.27-.14-.51-.19-.73a2.64,2.64,0,0,1-.08-.47,2.53,2.53,0,0,1,0-.27.54.54,0,0,1,.11-.35.77.77,0,0,1,.4-.26,3.23,3.23,0,0,1,.78-.14c.34,0,.75,0,1.26,0s1,0,1.35.05a4,4,0,0,1,.8.14.73.73,0,0,1,.42.27,1.37,1.37,0,0,1,.2.42L532,135.38l.12.51.12-.51L536.35,122a1,1,0,0,1,.19-.42.81.81,0,0,1,.42-.27,3.71,3.71,0,0,1,.76-.14c.32,0,.74-.05,1.26-.05s.91,0,1.23,0a3,3,0,0,1,.75.14A.72.72,0,0,1,541.33,121.57Zm19.06,4.58a7.39,7.39,0,0,0-1.53-2.83,7.1,7.1,0,0,0-2.66-1.87,10.37,10.37,0,0,0-3.91-.67,10,10,0,0,0-3.89.72,7.75,7.75,0,0,0-2.93,2.07,9.12,9.12,0,0,0-1.84,3.3,14.21,14.21,0,0,0-.63,4.38,14.79,14.79,0,0,0,.6,4.45,7.67,7.67,0,0,0,1.83,3.15,7.48,7.48,0,0,0,3.05,1.85,13.37,13.37,0,0,0,4.26.62,16.83,16.83,0,0,0,2.53-.18,18.21,18.21,0,0,0,2.1-.41,9.69,9.69,0,0,0,1.51-.48,2.58,2.58,0,0,0,.73-.38,1.82,1.82,0,0,0,.21-.3,1.21,1.21,0,0,0,.12-.38,3.69,3.69,0,0,0,.06-.54c0-.21,0-.46,0-.76s0-.63,0-.85a1.56,1.56,0,0,0-.11-.52.55.55,0,0,0-.2-.26.71.71,0,0,0-.31-.07,2.27,2.27,0,0,0-.79.2c-.33.13-.74.27-1.24.43a17.34,17.34,0,0,1-1.77.42,12.67,12.67,0,0,1-2.36.2,6.66,6.66,0,0,1-2.28-.35,3.84,3.84,0,0,1-1.55-1,4.12,4.12,0,0,1-.88-1.61,7.78,7.78,0,0,1-.27-2.12h11.08a1.52,1.52,0,0,0,1.15-.44,2,2,0,0,0,.42-1.39v-.82A12.19,12.19,0,0,0,560.39,126.15Zm-12.16,2.9a7.06,7.06,0,0,1,.29-1.81,4.62,4.62,0,0,1,.74-1.47,3.62,3.62,0,0,1,1.2-1,3.78,3.78,0,0,1,1.71-.37,3.36,3.36,0,0,1,2.86,1.24,5.28,5.28,0,0,1,.87,3.4Z" transform="translate(-24.24 -25.05)" style="fill:#fff"/></svg>